<svg xmlns="http://www.w3.org/2000/svg" width="1889.76" height="1889.76" viewBox="0 0 1889.76 1889.76"><defs><clipPath id="a" clipPathUnits="userSpaceOnUse"><path d="M-329.018 556.481h1417.32v-1417.32h-1417.32Z"/></clipPath><clipPath id="b" clipPathUnits="userSpaceOnUse"><path d="M-1086.458 556.481h1417.32v-1417.32h-1417.32Z"/></clipPath><clipPath id="c" clipPathUnits="userSpaceOnUse"><path d="M-499.798 539.628h1417.32v-1417.32h-1417.32Z"/></clipPath><clipPath id="d" clipPathUnits="userSpaceOnUse"><path d="M-707.258 1336.664h1417.32V-80.656h-1417.32Z"/></clipPath><clipPath id="e" clipPathUnits="userSpaceOnUse"><path d="M0 1417.32h1417.32V0H0Z"/></clipPath><clipPath id="f" clipPathUnits="userSpaceOnUse"><path d="M-936.23 1323.571H481.09V-93.749H-936.23Z"/></clipPath><clipPath id="g" clipPathUnits="userSpaceOnUse"><path d="M-539.225 1289.389h1417.32v-1417.32h-1417.32Z"/></clipPath><clipPath id="h" clipPathUnits="userSpaceOnUse"><path d="M-362.904 1324.95h1417.32V-92.37h-1417.32Z"/></clipPath><clipPath id="i" clipPathUnits="userSpaceOnUse"><path d="M-1045.77 1323.571H371.55V-93.749h-1417.32Z"/></clipPath><clipPath id="j" clipPathUnits="userSpaceOnUse"><path d="M-469.577 1309.328h1417.32v-1417.32h-1417.32Z"/></clipPath><clipPath id="k" clipPathUnits="userSpaceOnUse"><path d="M-472.603 1170.734h1417.32v-1417.32h-1417.32Z"/></clipPath></defs><path d="M0 0c0 204 161.295 370.324 363.312 378.408v154.774c-287.467-8.155-518-243.743-518-533.182s230.533-525.027 518-533.183v154.775C161.295-370.324 0-204 0 0" clip-path="url(#a)" style="fill:#f47dd5;fill-opacity:1;fill-rule:nonzero;stroke:none" transform="matrix(1.33333 0 0 -1.33333 438.69 741.975)"/><path d="M0 0c0 204-161.295 370.324-363.312 378.408v154.774c287.466-8.155 518-243.743 518-533.182s-230.534-525.027-518-533.183v154.775C-161.295-370.324 0-204 0 0" clip-path="url(#b)" style="fill:#2fb5ea;fill-opacity:1;fill-rule:nonzero;stroke:none" transform="matrix(1.33333 0 0 -1.33333 1448.61 741.975)"/><path d="M0 0c0 37.35 30.278 67.628 67.628 67.628S135.256 37.35 135.256 0s-30.278-67.628-67.628-67.628S0-37.35 0 0m350.32 180.264c37.35 0 67.628-30.278 67.628-67.628S387.67 45.008 350.32 45.008c-37.349 0-67.628 30.278-67.628 67.628s30.279 67.628 67.628 67.628M207.939-204.403c-52.1 0-99.232 21.25-133.219 55.548l131.935 51.554-131.944-51.557 131.944 51.557 188.702 73.735 149.675 58.485c-24.943 163.759-166.364 289.227-337.093 289.227-188.329 0-341-152.67-341-341 0-188.329 152.671-341 341-341 42.206 0 82.609 7.688 119.915 21.706l-58.473 142.054c-19.251-6.673-39.919-10.309-61.442-10.309" clip-path="url(#c)" style="fill:#d5d1db;fill-opacity:1;fill-rule:nonzero;stroke:none" transform="matrix(1.33333 0 0 -1.33333 666.397 719.504)"/><path d="m0 0-68.501 185.972h-30.625l84.331-216.894h29.59l84.33 216.894H68.5Z" clip-path="url(#d)" style="fill:#d5d1db;fill-opacity:1;fill-rule:nonzero;stroke:none" transform="matrix(1.33333 0 0 -1.33333 943.01 1782.219)"/><path d="M836.269 49.734h28.85v216.894h-28.85z" clip-path="url(#e)" style="fill:#d5d1db;fill-opacity:1;fill-rule:nonzero;stroke:none" transform="matrix(1.33333 0 0 -1.33333 0 1889.76)"/><path d="M0 0q-20.86 23.153-20.86 64.433-.002 41.424 20.934 64.505c13.466 14.848 30.594 22.509 51.364 23.031v24.588c-29.582-.436-53.882-10.683-72.89-30.753Q-50.6 115.03-50.599 64.433-50.6 13.98-21.452-16.866c19.008-20.118 43.308-30.39 72.89-30.826v24.577C30.693-22.72 13.542-15.031 0 0" clip-path="url(#f)" style="fill:#d5d1db;fill-opacity:1;fill-rule:nonzero;stroke:none" transform="matrix(1.33333 0 0 -1.33333 1248.306 1764.762)"/><path d="M0 0q2.717 19.024 12.724 28.352 10.005 9.326 23.966 9.327 14.329-.001 24.213-9.389Q70.784 18.901 73.627 0Zm36.69 55.838q-27.425 0-44.411-18.221-16.986-18.223-16.986-50.341 0-32.367 17.542-50.464 17.538-18.095 46.44-18.096v18.283Q23.097-63 12.045-52.008.987-41.014-.494-18.283H98.21v5.559q0 32.736-16.738 50.65Q64.731 55.837 36.69 55.838" clip-path="url(#g)" style="fill:#d5d1db;fill-opacity:1;fill-rule:nonzero;stroke:none" transform="matrix(1.33333 0 0 -1.33333 718.966 1719.185)"/><path d="M0 0q-18.645 22.255-18.645 63.305 0 41.19 18.79 63.377 18.786 22.185 51.019 22.185c.539 0 1.066-.016 1.599-.025v23.989c-.628.012-1.253.028-1.888.028q-44.952 0-71.76-29.556-26.81-29.559-26.81-79.998 0-50.442 26.81-79.998Q5.923-46.251 50.875-46.25c.635 0 1.26.017 1.888.027v24.004c-.722-.017-1.441-.039-2.177-.039Q18.644-22.258 0 0" clip-path="url(#h)" style="fill:#f47dd5;fill-opacity:1;fill-rule:nonzero;stroke:none" transform="matrix(1.33333 0 0 -1.33333 483.872 1766.599)"/><path d="M0 0q20.86 23.153 20.86 64.433.002 41.424-20.934 64.505c-13.466 14.848-30.594 22.509-51.364 23.031v24.588c29.582-.436 53.882-10.683 72.89-30.753Q50.6 115.03 50.599 64.433 50.6 13.98 21.452-16.866c-19.008-20.118-43.308-30.39-72.89-30.826v24.577C-30.693-22.72-13.542-15.031 0 0" clip-path="url(#i)" style="fill:#2fb5ea;fill-opacity:1;fill-rule:nonzero;stroke:none" transform="matrix(1.33333 0 0 -1.33333 1394.36 1764.762)"/><path d="M0 0c-2.532-10.748-7.827-19.333-15.907-25.738-8.841-7.004-20.068-10.972-33.67-11.914V-61.71c21.218.989 39 7.089 53.326 18.339 8.93 7.014 15.641 15.683 20.148 25.998z" clip-path="url(#j)" style="fill:#d5d1db;fill-opacity:1;fill-rule:nonzero;stroke:none" transform="matrix(1.33333 0 0 -1.33333 626.102 1745.77)"/><path d="M0 0c-14.708 11.294-32.249 17.438-52.603 18.471V-5.541q19.908-1.315 33.597-11.658c7.412-5.602 12.476-12.593 15.214-20.956l23.509 15.113C15.118-14.261 8.559-6.572 0 0" clip-path="url(#k)" style="fill:#d5d1db;fill-opacity:1;fill-rule:nonzero;stroke:none" transform="matrix(1.33333 0 0 -1.33333 630.137 1560.98)"/></svg>